<svg width="46" height="46" viewBox="0 0 46 46" fill="none" xmlns="http://www.w3.org/2000/svg">
<rect width="46" height="46" rx="23" fill="#FF8200"/>
<path fill-rule="evenodd" clip-rule="evenodd" d="M23 11.5C23.7939 11.5 24.4375 12.1436 24.4375 12.9375V21.5625H33.0625C33.8564 21.5625 34.5 22.2061 34.5 23C34.5 23.7939 33.8564 24.4375 33.0625 24.4375H24.4375V33.0625C24.4375 33.8564 23.7939 34.5 23 34.5C22.2061 34.5 21.5625 33.8564 21.5625 33.0625V24.4375H12.9375C12.1436 24.4375 11.5 23.7939 11.5 23C11.5 22.2061 12.1436 21.5625 12.9375 21.5625H21.5625V12.9375C21.5625 12.1436 22.2061 11.5 23 11.5Z" fill="white"/>
</svg>
